<?xml version="1.0" encoding="utf-8"?>
<!-- Generator: Adobe Illustrator 16.0.0, SVG Export Plug-In . SVG Version: 6.00 Build 0)  -->
<!DOCTYPE svg PUBLIC "-//W3C//DTD SVG 1.0//EN" "http://www.w3.org/TR/2001/REC-SVG-20010904/DTD/svg10.dtd">
<svg version="1.0" xmlns="http://www.w3.org/2000/svg" xmlns:xlink="http://www.w3.org/1999/xlink" x="0px" y="0px" width="42px"
	 height="42px" viewBox="0 0 42 42" enable-background="new 0 0 42 42" xml:space="preserve">
<g id="cerchio_bianco">
	<circle fill="#FFFFFF" cx="21" cy="21" r="20"/>
</g>
<g id="Livello_1">
	<g id="BU20mar">
		<path fill="#010202" d="M20.999,1.029c-11.03,0-19.97,8.941-19.97,19.973c0,11.03,8.94,19.968,19.97,19.968
			c11.03,0,19.973-8.938,19.973-19.968C40.972,9.971,32.028,1.029,20.999,1.029z M3.616,21.002c0-9.598,7.78-17.385,17.382-17.385
			c9.603,0,17.382,7.787,17.382,17.385c0,2.751-0.656,5.342-1.792,7.655l-0.213-0.216c-5.636-1.374-5.277-3.363-5.277-3.363
			c-0.034-1.189-0.467-1.738-0.467-1.738c-1.338-2.701-3.616-2.775-5.314-2.885c-1.697-0.112-1.329-0.254-1.329-0.254
			c0.57-0.47,0.644-1.229,0.644-1.229c-0.903-0.145-1.048-0.755-1.048-0.755c0.145,0.109,0.866-0.075,0.866-0.075
			c-0.866-0.4-0.939-0.756-0.939-0.756c0.293,0.101,0.98,0,0.98,0c-0.259-0.113-0.185-0.474-0.185-0.474
			c0.648,0.218,1.12-0.285,1.12-0.285c-1.12-0.217-1.158-0.87-1.158-0.87c0.289,0.216,0.724-0.039,0.724-0.039
			c-0.292-0.034-0.543-0.646-0.543-0.646l0.762,0.03c-0.256-0.143-0.289-0.573-0.289-0.573c0.865,0.105,1.334-0.142,1.334-0.142
			c-0.288-0.074-0.724-0.656-0.724-0.656l0.36-0.252c-0.434-0.107-0.505-0.575-0.36-1.156c0.148-0.574-0.688-1.046-0.688-1.046
			l1.014-0.04c0,0-0.543-0.649-0.938-0.79c-0.398-0.146-0.107-0.474-0.107-0.474s-0.183,0.183-0.872-0.217
			c-0.685-0.395,0.401-1.373,0.401-1.373c-0.939-0.033-1.444,0.295-1.882,0.58c-0.433,0.287-0.613,0.183-0.613,0.183
			c-0.47-0.397-1.154-0.653-1.154-0.653c0.14,0.185,0.208,0.942,0.208,0.942s-0.538-0.074-1.225-0.186
			c-0.686-0.104-2.886-0.827-3.359-0.756c-0.47,0.073-0.252,0.545-0.252,0.545l0.9,0.97c0,0-1.011,0-1.226,0
			c-0.213,0-0.183,0.184-0.183,0.184c0,0.58,0.761,0.613,1.201,0.688c0.433,0.073,0.826,0.25,1.436,0.976
			c0.616,0.723,1.843,1.303,1.843,1.303c-3.212,1.549-4.802,4.659-4.802,4.659c-0.906-1.304-2.351-2.999-2.752-3.541
			c-0.39-0.546-1.004-0.29-1.443-0.078c-0.428,0.217-2.742,1.159-2.742,1.159s-0.072,0.583-0.47,0.831
			c-0.399,0.252-0.542,0.542-0.542,0.542L7.029,18.03c0,0,1.373-0.717,1.517-0.863C8.699,17.021,8.8,16.083,8.8,16.083l0.869-0.11
			c0.76-0.975,2.169-0.576,2.169-0.576l1.3,2.82c0,0-1.518-0.87-2.058-1.305c-0.541-0.427-1.015,0.254-1.015,0.254
			s-1.008,1.405-1.337,1.913c-0.327,0.503-0.358,0.834-0.212,0.942c0.142,0.106,0.398,0.178,0.104,0.502
			c-0.432,0.727,0.326,1.515,0.326,1.515l1.053-1.003c-0.222-0.185-0.585-0.727-0.4-0.907c0.178-0.181,0.14-0.433,0.14-0.433
			l1.05-1.411c0,0,0.183,0.502,3.466,3.834c3.295,3.327,8.349,4.873,8.349,4.873s-1.19,1.159-0.615,2.354
			c0.931,1.912,3.254,2.024,3.254,2.024l-3.977,2.562c-0.213,1.229-0.503,1.306-0.503,1.306l-5.037,2.329
			C8.704,35.335,3.616,28.764,3.616,21.002z"/>
	</g>
</g>
</svg>
